<svg xmlns="http://www.w3.org/2000/svg" xml:space="preserve" width="72" height="72" viewBox="0 0 72 72">
    <path fill="currentColor" d="M49.7 38.5c-1.7 2.3-3.3 4.6-5 6.8-.8 1-1.6 2-2.7 2.7-1.3.9-2.8 1-3.8-.4 1.5-2.8 2.9-5.6 4.4-8.3-.2-.1-.5-.2-.7-.4-.5.8-.9 1.5-1.4 2.3-3.7 4.9-7.3 9.9-11.1 14.8-.6.7-1.5 1.3-2.4 1.7-1.9.9-2.6.6-3.1-1.5-3.7 5.4-9.3 8.2-14.8 11.2-.7.4-1.8.2-2.7.3.3-.9.3-2.2.9-2.8 2.4-2.5 5-4.7 7.5-7.2 1.2-1.2 2.3-2.6 3-3.5-1.2-.8-2.5-1.2-3.2-2.1-1.1-1.6.1-2.8 1.2-4 1.7-2.1 4.3-1.9 6.5-2.7 1-.3 2-.8 3.1-1.2q-2.2-3.1-.3-5.4c-.3-.5-.7-1-.9-1.5-1.2-3.1.3-7.5 3.1-9.4 2-1.4 4-2.7 6.1-4.1-.2-.3-.3-.5-.3-.5l-3-.6c.4-1.1.5-2.3 1.2-3.2 3.2-4.6 6.8-8.8 12-11.4 8.4-4.1 17.8-1.4 21.6 8.4 2.5 6.3.6 11.9-3.1 17.1-2.4 3.4-5.4 6.1-9.2 8-.7.3-1.4.5-2 .8-.2-.8-.4-1.6-.5-2.3 0-.3 0-.6.1-.8v-.5h-.4ZM47.7 8h-.4c-1.8.8-3.6 1.6-5.3 2.4-1.1.8-2.2 1.7-3.3 2.5-1.1 1.1-2.2 2.3-3.3 3.4-1.1 1.4-2.2 2.9-3.2 4.3 1.6.3 2.8.5 4.1.7-.6 1.1-1.1 2.1-1.7 3.2-1.7 1.2-3.3 2.4-5 3.5-.1.1-.3.2-.4.3-.1 0-.3.2-.4.2-2.5 1.3-3 3.6-3 6.4 1.6-1.5 2.9-2.7 4.3-4 1.6-.4 2.3-3.1 5-1.8l-1.5 5.1c-.7 1-1.4 2-2.2 2.9H31c-2.3.3-4.1 1.4-5.1 3.5h.6c.2 1.2.5 2.4.7 3.7-1.6.8-3.1 1.6-4.7 2.5-1.3.3-2.7.4-3.9.9-1.4.6-2.4 1.7-1.7 3.8.7-.6 1.2-1.3 1.9-1.5.9-.3 2-.2 3-.3 0 .8.1 1.8-.2 2.4-.5 1-1.3 1.8-2 2.7-2.6 2.6-5.2 5.3-7.8 7.9.1.2.2.3.3.5 3.1-1.6 6-3.5 8.5-5.9 2-2.4 4-4.7 6-7.1 1.1-.8 2.2-1.5 3.3-2.3l.8.6c-.6 1.5-1.2 3.1-1.9 4.9 2.2-.9 3-2.8 4.1-4.4 1.1-1.7 2.3-3.4 3.4-5.1 1.3-1.9 2.5-3.8 3.8-5.6 1.1-.6 2.5-1.9 3.2-1.6 1.7.7 1 2.6.5 3.9-.6 1.6-1.4 3.2-2.2 4.8 0 .1-.1.3-.2.4.1 0 .3-.1.4-.2 2-2.5 4-5.1 5.9-7.6 1-1.2 2-2.5 3-3.7 1.2-.5 1.8 0 1.7 1.2 0 1.2-.2 2.4-.4 4.2 2-1.6 3.5-2.8 5.1-4.1 1.4-1.7 2.8-3.3 4.3-5 .6-1.6 1.2-3.1 1.8-4.7.1-.5.2-1.1.3-1.6.2-.8.5-1.5.7-2.3v-1.3c-.6-2.2-.8-4.7-1.9-6.7-2.8-5.3-7.3-7.4-13.4-6.4H48ZM31.9 32.5l-.5-.5c-1.4 1.3-2.8 2.7-4.2 4 3.4 0 4.2-.6 4.7-3.6Z" vector-effect="non-scaling-stroke"/>
    <path fill="currentColor" d="M59.6 20.3c-.5 1-1.1 2-1.6 3.1l-.8.8c-.3.3-.6.5-.8.8l-.4.4c-.3.1-.6.3-.9.4-.7 0-1.5 0-2.8.2-.1.2-.6.8-1.1 1.5q-.6.3-1.5.6v-1.2c0-.4-.1-.9-.2-1.3-.4.2-1 .2-1.2.5-.9 1.4-1.8 2.9-2.6 4.3-.7.4-1.4.9-2.1 1.3-.9.5-2.1.7-2.8 1.4-1.4 1.4-2.5 3-3.7 4.5l-.4.4h-.8v-.8c.2-.3.3-.6.5-.9l.4-.4c-.2-.5-.3-.9-.5-1.4v-.4c1.5-1.5 3-3 4.4-4.5v-.1c.3-.2.5-.3.8-.5-.1-1.5.2-2.8 1.7-3.4.6-.7 1.3-1.5 1.9-2.2.3-.5.6-.9 1.2-1.7-1.2.2-1.9.4-2.6.5 0-.4-.2-.7 0-1.1.3-1.2 2.3-1.6 1.4-3.3.5-1 1.1-2 1.6-2.9.5-.7.9-1.4 1.4-2 .1-.1.2-.3.4-.4.3-.3.6-.5.9-.8h.1c2.2-.7 4.4-.8 6.5.5 2.9 1.8 4.3 4.4 3.9 7.8Z" vector-effect="non-scaling-stroke"/>
</svg>
