<?xml version="1.0" encoding="UTF-8"?>
<svg id="Layer_1" data-name="Layer 1" xmlns="http://www.w3.org/2000/svg" version="1.1" viewBox="0 0 72 72">
  <defs>
    <style>
      .cls-1 {
        fill: #e16401;
      }

      .cls-1, .cls-2, .cls-3, .cls-4, .cls-5, .cls-6, .cls-7, .cls-8, .cls-9, .cls-10, .cls-11, .cls-12, .cls-13, .cls-14, .cls-15, .cls-16, .cls-17, .cls-18, .cls-19, .cls-20, .cls-21, .cls-22 {
        stroke-width: 0px;
      }

      .cls-2 {
        fill: #df6201;
      }

      .cls-3 {
        fill: #d85101;
      }

      .cls-4 {
        fill: #d84701;
      }

      .cls-5 {
        fill: #d83b00;
      }

      .cls-6 {
        fill: #f5e320;
      }

      .cls-7 {
        fill: #e47800;
      }

      .cls-8 {
        fill: #c31603;
      }

      .cls-9 {
        fill: #e05c01;
      }

      .cls-10 {
        fill: #d13101;
      }

      .cls-11 {
        fill: #e66d01;
      }

      .cls-12 {
        fill: #120e0c;
      }

      .cls-13 {
        fill: #dd5100;
      }

      .cls-14 {
        fill: #d04201;
      }

      .cls-15 {
        fill: #e67301;
      }

      .cls-16 {
        fill: #e46c01;
      }

      .cls-17 {
        fill: #e05b01;
      }

      .cls-18 {
        fill: #d14302;
      }

      .cls-19 {
        fill: #e97e00;
      }

      .cls-20 {
        fill: #e97601;
      }

      .cls-21 {
        fill: #cf2601;
      }

      .cls-22 {
        fill: #ed6d02;
      }
    </style>
  </defs>
  <path class="cls-12" d="M49.7,38.5c-1.7,2.3-3.3,4.6-5,6.8-.8,1-1.6,2-2.7,2.7-1.3.9-2.8,1-3.8-.4,1.5-2.8,2.9-5.6,4.4-8.3-.2-.1-.5-.2-.7-.4-.5.8-.9,1.5-1.4,2.3-3.7,4.9-7.3,9.9-11.1,14.8-.6.7-1.5,1.3-2.4,1.7-1.9.9-2.6.6-3.1-1.5-3.7,5.4-9.3,8.2-14.8,11.2-.7.4-1.8.2-2.7.3.3-.9.3-2.2.9-2.8,2.4-2.5,5-4.7,7.5-7.2,1.2-1.2,2.3-2.6,3-3.5-1.2-.8-2.5-1.2-3.2-2.1-1.1-1.6.1-2.8,1.2-4,1.7-2.1,4.3-1.9,6.5-2.7,1-.3,2-.8,3.1-1.2q-2.2-3.1-.3-5.4c-.3-.5-.7-1-.9-1.5-1.2-3.1.3-7.5,3.1-9.4,2-1.4,4-2.7,6.1-4.1-.2-.3-.3-.5-.3-.5-1-.2-2-.4-3-.6.4-1.1.5-2.3,1.2-3.2,3.2-4.6,6.8-8.8,12-11.4,8.4-4.1,17.8-1.4,21.6,8.4,2.5,6.3.6,11.9-3.1,17.1-2.4,3.4-5.4,6.1-9.2,8-.7.3-1.4.5-2,.8-.2-.8-.4-1.6-.5-2.3,0-.3,0-.6.1-.8,0-.2,0-.4,0-.5-.1,0-.3,0-.4,0ZM47.7,8c-.1,0-.3,0-.4,0-1.8.8-3.6,1.6-5.3,2.4-1.1.8-2.2,1.7-3.3,2.5-1.1,1.1-2.2,2.3-3.3,3.4-1.1,1.4-2.2,2.9-3.2,4.3,1.6.3,2.8.5,4.1.7-.6,1.1-1.1,2.1-1.7,3.2-1.7,1.2-3.3,2.4-5,3.5-.1.1-.3.2-.4.3-.1,0-.3.2-.4.2-2.5,1.3-3,3.6-3,6.4,1.6-1.5,2.9-2.7,4.3-4,1.6-.4,2.3-3.1,5-1.8-.5,1.7-1,3.4-1.5,5.1-.7,1-1.4,2-2.2,2.9-.1,0-.3,0-.4,0-2.3.3-4.1,1.4-5.1,3.5.2,0,.4,0,.6,0,.2,1.2.5,2.4.7,3.7-1.6.8-3.1,1.6-4.7,2.5-1.3.3-2.7.4-3.9.9-1.4.6-2.4,1.7-1.7,3.8.7-.6,1.2-1.3,1.9-1.5.9-.3,2-.2,3-.3,0,.8.1,1.8-.2,2.4-.5,1-1.3,1.8-2,2.7-2.6,2.6-5.2,5.3-7.8,7.9.1.2.2.3.3.5,3.1-1.6,6-3.5,8.5-5.9,2-2.4,4-4.7,6-7.1,1.1-.8,2.2-1.5,3.3-2.3l.8.6c-.6,1.5-1.2,3.1-1.9,4.9,2.2-.9,3-2.8,4.1-4.4,1.1-1.7,2.3-3.4,3.4-5.1,1.3-1.9,2.5-3.8,3.8-5.6,1.1-.6,2.5-1.9,3.2-1.6,1.7.7,1,2.6.5,3.9-.6,1.6-1.4,3.2-2.2,4.8,0,.1-.1.3-.2.4.1,0,.3-.1.4-.2,2-2.5,4-5.1,5.9-7.6,1-1.2,2-2.5,3-3.7,1.2-.5,1.8,0,1.7,1.2,0,1.2-.2,2.4-.4,4.2,2-1.6,3.5-2.8,5.1-4.1,1.4-1.7,2.8-3.3,4.3-5,.6-1.6,1.2-3.1,1.8-4.7.1-.5.2-1.1.3-1.6.2-.8.5-1.5.7-2.3,0-.4,0-.8,0-1.3-.6-2.2-.8-4.7-1.9-6.7-2.8-5.3-7.3-7.4-13.4-6.4-.3,0-.6,0-.9,0ZM31.9,32.5c-.2-.2-.3-.3-.5-.5-1.4,1.3-2.8,2.7-4.2,4,3.4,0,4.2-.6,4.7-3.6Z"/>
  <path class="cls-19" d="M63.9,22.5c-.2.8-.5,1.5-.7,2.3-.7-.7-1.4-1.3-2-2-.6-.8-1-1.7-1.5-2.5.3-3.4-1.1-6-3.9-7.8-2.1-1.3-4.3-1.2-6.5-.5,1.3-1.5-.5-2.6-.6-3.9,6.1-1,10.6,1.1,13.4,6.4,1.1,2,1.3,4.5,1.9,6.7,0,.4,0,.8,0,1.3Z"/>
  <path class="cls-5" d="M26.8,44.6c-.2-1.2-.5-2.4-.7-3.7-.2,0-.4,0-.6,0,1-2.1,2.8-3.2,5.1-3.5,0,.1,0,.2,0,.4.4.7.9,1.4,1.3,2.1v.8c-.2,0-.3,0-.4,0-.3.2-.7.3-1,.5l.6.4c.8,0,1.9-.3,2.5,0,.9.6,1.5,1.7,2.3,2.6-1.1,1.7-2.3,3.4-3.4,5.1-.8-.9-1.6-1.8-2.5-2.6-1-.8-2.1-1.5-3.1-2.2Z"/>
  <path class="cls-9" d="M34.4,24.6c.6-1.1,1.1-2.1,1.7-3.2-1.3-.2-2.5-.4-4.1-.7,1-1.4,2.1-2.8,3.2-4.3,2,2,3.9,4.1,6,5.9,1.2,1,1.9,2,1.7,3.5-1.5.6-1.8,1.9-1.7,3.4-.3.2-.5.3-.8.5h0c-.5-.3-.9-.7-1.4-1.1-1.6-1.4-3.2-2.8-4.8-4.1Z"/>
  <path class="cls-2" d="M56.8,36c-1.5,1.3-3.1,2.5-5.1,4.1.2-1.9.3-3,.4-4.2,0-1.2-.5-1.7-1.7-1.2-1-2.1-1.9-4.3-4.8-4.1.9-1.4,1.7-2.9,2.6-4.3.2-.3.8-.4,1.2-.5,0,.4.1.8.2,1.3,0,.3,0,.7,0,1.2.6-.3,1.1-.4,1.5-.6.6.9,1.1,1.9,1.7,2.8,1.3,1.9,2.7,3.8,4,5.7Z"/>
  <path class="cls-13" d="M34.4,24.6c1.6,1.4,3.2,2.8,4.8,4.1.5.4.9.8,1.4,1.2-1.5,1.5-3,3-4.4,4.5h-2.9c.5-1.7,1-3.4,1.5-5.1-2.6-1.3-3.3,1.4-5,1.8-.4-.8-.9-1.6-1.3-2.4.1,0,.3-.2.4-.2.1-.1.3-.2.4-.3,1.7-1.2,3.3-2.4,5-3.5Z"/>
  <path class="cls-16" d="M56.8,36c-1.3-1.9-2.7-3.8-4-5.7-.6-.9-1.1-1.8-1.7-2.8.5-.7,1-1.3,1.1-1.5,1.3,0,2.1-.1,2.8-.2.3,0,.6,0,.9,0,1,1.2,2,2.4,3.1,3.6.6.6,1.4,1.1,2.1,1.6-1.4,1.7-2.8,3.3-4.3,5Z"/>
  <path class="cls-1" d="M43,25.9c.2-1.6-.5-2.5-1.7-3.5-2.2-1.8-4-3.9-6-5.9,1.1-1.1,2.2-2.3,3.3-3.4,1.3,1.5,2.7,2.9,3.8,4.4.7,1,1.4,1.2,2.4.7.9,1.7-1.2,2.1-1.4,3.3,0,.3,0,.7,0,1.1.5.4.9.8,1.4,1.2-.6.7-1.3,1.5-1.9,2.2Z"/>
  <path class="cls-3" d="M41.2,45.8c.7-1.6,1.6-3.1,2.2-4.8.5-1.3,1.1-3.2-.5-3.9-.7-.3-2.1,1-3.2,1.6-.9-.3-1.7-.6-2.6-.9,1.2-1.5,2.3-3.1,3.7-4.5.7-.7,1.8-1,2.8-1.4,0,.7,0,1.4,0,2.1,1.3,1.5,2.6,2.9,3.9,4.4-2,2.5-4,5.1-5.9,7.6,0,0-.1-.1-.2-.2Z"/>
  <path class="cls-4" d="M37.1,37.8c.9.3,1.7.6,2.6.9-1.3,1.9-2.5,3.8-3.8,5.6-.7-.9-1.4-2-2.3-2.6-.6-.4-1.6,0-2.5,0,.1-.3.3-.6.4-.8.1,0,.3,0,.4,0,.2-.2.4-.3.6-.5-.2-.1-.4-.2-.6-.4-.4-.7-.9-1.4-1.3-2.1.1-.2.3-.3.4-.5.7-1,1.4-2,2.2-2.9,1,0,1.9,0,2.9,0,0,.1,0,.2,0,.4.2.5.3.9.5,1.4-.1.1-.3.3-.4.4-.2.3-.3.6-.5.9h0c-.5.2-1.1.3-1.5.6-.3.2-.4.7-.6,1,.4.2.8.3,1.2.5.5-.4,1.1-.8,1.6-1.3.1-.1.3-.3.4-.4Z"/>
  <path class="cls-21" d="M26.2,50.7c-2,2.4-4,4.7-6,7.1-.3-.8-.7-1.7-1-2.5.7-.9,1.5-1.7,2-2.7.3-.7.1-1.6.2-2.4-1,0-2,0-3,.3-.6.2-1.1.9-1.9,1.5-.7-2.2.3-3.2,1.7-3.8,1.2-.5,2.6-.6,3.9-.9,1.3,1.2,2.7,2.4,4,3.6Z"/>
  <path class="cls-11" d="M44.9,18.2c-1,.5-1.7.3-2.4-.7-1.1-1.6-2.5-3-3.8-4.4,1.1-.8,2.2-1.7,3.3-2.5,2.2.4,4,2.3,4.5,4.7-.5,1-1.1,2-1.6,2.9Z"/>
  <path class="cls-10" d="M26.2,50.7c-1.3-1.2-2.7-2.4-4-3.6,1.6-.8,3.1-1.6,4.7-2.5,1.1.7,2.2,1.4,3.1,2.2.9.8,1.6,1.7,2.5,2.6-1.1,1.6-2,3.5-4.1,4.4.7-1.8,1.3-3.4,1.9-4.9l-.8-.6c-1.1.8-2.2,1.5-3.3,2.3Z"/>
  <path class="cls-17" d="M47.4,38.4c-1.3-1.5-2.6-2.9-3.9-4.4.7-1.1,1.4-2.3,2.1-3.4h0c2.9-.2,3.8,2,4.8,4.1-1,1.2-2,2.5-3,3.7Z"/>
  <path class="cls-15" d="M61,31.1c-.7-.5-1.5-.9-2.1-1.6-1.1-1.1-2.1-2.4-3.1-3.6,0-.1,0-.3,0-.4h0c.1-.1.3-.3.4-.4,0,0,0,0,0,0,.3-.3.6-.5.8-.8,0,0,0,0,0,0,.3-.3.5-.5.8-.8h0c.9.5,1.8,1,2.7,1.6.7.5,1.4,1,2.2,1.5-.6,1.6-1.2,3.1-1.8,4.7Z"/>
  <path class="cls-20" d="M46.5,15.2c-.4-2.4-2.3-4.3-4.5-4.7,1.8-.8,3.6-1.6,5.3-2.4.1,0,.3,0,.4,0,.3,0,.6,0,.9,0,0,1.3,1.9,2.4.6,3.9,0,0-.1,0-.1,0-.3.3-.6.5-.9.8,0,0,0,0,0,0-.2,0-.4,0-.6.1,0,.1.2.2.2.3-.5.7-.9,1.4-1.4,2Z"/>
  <path class="cls-8" d="M19.2,55.2c.3.8.7,1.7,1,2.5-2.5,2.5-5.4,4.4-8.5,5.9-.1-.2-.2-.3-.3-.5,2.6-2.6,5.2-5.3,7.8-7.9Z"/>
  <path class="cls-18" d="M28.6,28.7c.4.8.9,1.6,1.3,2.4-1.4,1.3-2.7,2.5-4.3,4,0-2.8.4-5.1,3-6.4Z"/>
  <path class="cls-7" d="M62.8,26.4c-.7-.5-1.4-1-2.2-1.5-.9-.6-1.8-1.1-2.7-1.6.5-1,1.1-2,1.6-3.1.5.8.9,1.7,1.5,2.5.6.7,1.3,1.3,2,2-.1.5-.2,1.1-.3,1.6Z"/>
  <path class="cls-7" d="M63.9,22.5c0-.4,0-.8,0-1.3,0,.4,0,.8,0,1.3Z"/>
  <path class="cls-19" d="M47.7,8c-.1,0-.3,0-.4,0,.1,0,.3,0,.4,0Z"/>
  <path class="cls-18" d="M29.4,28.2c-.1.1-.3.2-.4.3.1-.1.3-.2.4-.3Z"/>
  <path class="cls-14" d="M31.1,37.4c-.1.2-.3.3-.4.5,0-.1,0-.2,0-.4.1,0,.3,0,.4,0Z"/>
  <path class="cls-3" d="M41.4,46c-.1,0-.3.1-.4.2,0-.1.1-.3.2-.4,0,0,.1.1.2.2Z"/>
  <path class="cls-6" d="M59.6,20.3c-.5,1-1.1,2-1.6,3.1,0,0,0,0,0,0-.3.3-.5.5-.8.8,0,0,0,0,0,0-.3.3-.6.5-.8.8,0,0,0,0,0,0-.1.1-.3.3-.4.4,0,0,0,0,0,0-.3.1-.6.3-.9.4-.7,0-1.5,0-2.8.2-.1.2-.6.8-1.1,1.5-.4.2-.9.4-1.5.6,0-.5,0-.8,0-1.2,0-.4-.1-.9-.2-1.3-.4.2-1,.2-1.2.5-.9,1.4-1.8,2.9-2.6,4.3,0,0,0,0,0,0-.7.4-1.4.9-2.1,1.3-.9.5-2.1.7-2.8,1.4-1.4,1.4-2.5,3-3.7,4.5-.1.1-.3.3-.4.4-.3,0-.5,0-.8,0,0-.3,0-.5,0-.8,0,0,0,0,0,0,.2-.3.3-.6.5-.9.1-.1.3-.3.4-.4-.2-.5-.3-.9-.5-1.4,0-.1,0-.2,0-.4,1.5-1.5,3-3,4.4-4.5,0,0,0-.1,0-.1.3-.2.5-.3.8-.5-.1-1.5.2-2.8,1.7-3.4.6-.7,1.3-1.5,1.9-2.2.3-.5.6-.9,1.2-1.7-1.2.2-1.9.4-2.6.5,0-.4-.2-.7,0-1.1.3-1.2,2.3-1.6,1.4-3.3.5-1,1.1-2,1.6-2.9.5-.7.9-1.4,1.4-2,.1-.1.2-.3.4-.4,0,0,0,0,0,0,.3-.3.6-.5.9-.8,0,0,.1,0,.1,0,2.2-.7,4.4-.8,6.5.5,2.9,1.8,4.3,4.4,3.9,7.8Z"/>
  <path class="cls-14" d="M31.6,40.8c-.1.3-.3.6-.4.8-.2-.1-.4-.2-.6-.4.3-.2.7-.3,1-.5Z"/>
  <path class="cls-14" d="M32,40c.2.1.4.2.6.4-.2.2-.4.3-.6.5,0-.3,0-.6,0-.8Z"/>
  <path class="cls-13" d="M41.3,29.3c-.3.2-.5.3-.8.5.3-.2.5-.3.8-.5Z"/>
  <path class="cls-7" d="M54.9,25.9c.3-.1.6-.3.9-.4,0,.1,0,.3,0,.4-.3,0-.6,0-.9,0Z"/>
  <path class="cls-22" d="M43.5,22.5c.7-.1,1.5-.3,2.6-.5-.6.8-.9,1.3-1.2,1.7-.5-.4-.9-.8-1.4-1.2Z"/>
  <path class="cls-2" d="M43.5,31.9c.7-.4,1.4-.9,2.1-1.3-.7,1.1-1.4,2.3-2.1,3.4,0-.7,0-1.4,0-2.1Z"/>
  <path class="cls-14" d="M35.9,37.5c0,.3,0,.5,0,.8-.3.4-.6.8-.9,1.3-.4-.2-.8-.3-1.2-.5.2-.3.3-.8.6-1,.4-.3,1-.4,1.5-.6Z"/>
  <path class="cls-3" d="M35,39.5c.3-.4.6-.8.9-1.3.3,0,.5,0,.8,0-.5.4-1.1.8-1.6,1.3Z"/>
  <path class="cls-14" d="M36.3,34.8c.2.5.3.9.5,1.4-.2-.5-.3-.9-.5-1.4Z"/>
  <path class="cls-14" d="M36.3,36.6c-.2.3-.3.6-.5.9.2-.3.3-.6.5-.9Z"/>
  <path class="cls-7" d="M56.2,25c.3-.3.6-.5.8-.8-.3.3-.6.5-.8.8Z"/>
  <path class="cls-7" d="M57.1,24.2c.3-.3.5-.5.8-.8-.3.3-.5.5-.8.8Z"/>
  <path class="cls-7" d="M55.8,25.5c.1-.1.3-.3.4-.4-.1.1-.3.3-.4.4Z"/>
  <path class="cls-19" d="M49.1,12c-.3.3-.6.5-.9.8.3-.3.6-.5.9-.8Z"/>
  <path class="cls-19" d="M48.2,12.8c-.1.1-.2.3-.4.4,0-.1-.2-.2-.2-.3.2,0,.4,0,.6-.1Z"/>
</svg>