<?xml version="1.0" encoding="UTF-8"?>
<svg id="Layer_1" data-name="Layer 1" xmlns="http://www.w3.org/2000/svg" version="1.1" viewBox="0 0 72 72">
  <path fill="currentColor" d="M62.4,36.6c-5.9,0-12-.3-17.9,1.9-4.8,1.6-9.9.1-14.6,2.2.3-2.1,0-2.6-1.6-2.7-5.1-.1-10.1-1.7-15-.1-2.5-.5-5.3-.9-7.4-2.5-1.7-.7-2.4,1.7-.8,2.3,4.4,3.6,8.2,7.6,12.1,11.9,9.6,9.3,28.1,9.6,36.4-1.6-.5,0-1,.2-1.5.2.5,0,1-.2,1.5-.2,0,0,0,0,0,0,0,0,0,0,.1,0,0-.4-.2-.6-.4-.8.2.2.4.4.5.8h.2c2.4-3.2,14.6-9.4,12.6-12.9-1.4.5-2.8.9-4.2,1.5Z"/>
  <path fill="currentColor" d="M4.3,33.4c10.7.6,20.4-4.8,30.6.6,4.3.7,7.4-2.8,11.4-2.8,5.4,1.9,11.2,1.2,16.8,1.8,1.8.2,3.6.9,5.8,0-3.4-3.9-8-5.9-11.9-9-1.6-2-3.8-2.5-6-2.8-1.4-2.1-2-2-3.9-.8.1-4.4-4.8-3.3-7.7-3.4-2.5,1.1-3.6,2.9-6.1.7-6.4-4.6-23.4,9.8-29.1,14-.7.6-1.5,2.4,0,1.8h0Z"/>
</svg>