<?xml version="1.0" encoding="UTF-8"?>
<svg id="Layer_1" data-name="Layer 1" xmlns="http://www.w3.org/2000/svg" version="1.1" viewBox="0 0 72 72">
  <defs>
    <style>
      .cls-1 {
        fill: #770a03;
      }

      .cls-1, .cls-2, .cls-3, .cls-4, .cls-5, .cls-6, .cls-7, .cls-8, .cls-9, .cls-10, .cls-11, .cls-12, .cls-13, .cls-14, .cls-15, .cls-16, .cls-17, .cls-18, .cls-19, .cls-20, .cls-21, .cls-22, .cls-23, .cls-24 {
        stroke-width: 0px;
      }

      .cls-2 {
        fill: #780a03;
      }

      .cls-3 {
        fill: #8c1205;
      }

      .cls-4 {
        fill: #e5ad1d;
      }

      .cls-5 {
        fill: #750803;
      }

      .cls-6 {
        fill: #da2b07;
      }

      .cls-7 {
        fill: #770903;
      }

      .cls-8 {
        fill: #891005;
      }

      .cls-9 {
        fill: #9d1908;
      }

      .cls-10 {
        fill: #810d04;
      }

      .cls-11 {
        fill: #7b0b04;
      }

      .cls-12 {
        fill: #8e1206;
      }

      .cls-13 {
        fill: #db3714;
      }

      .cls-14 {
        fill: #e5b31d;
      }

      .cls-15 {
        fill: #7d0d04;
      }

      .cls-16 {
        fill: #a71d09;
      }

      .cls-17 {
        fill: #e5a229;
      }

      .cls-18 {
        fill: #881005;
      }

      .cls-19 {
        fill: #e5b21d;
      }

      .cls-20 {
        fill: #841005;
      }

      .cls-21 {
        fill: #850e05;
      }

      .cls-22 {
        fill: #740803;
      }

      .cls-23 {
        fill: #7c0b03;
      }

      .cls-24 {
        fill: #e5b41d;
      }
    </style>
  </defs>
  <path class="cls-13" d="M53.6,47.9c-.5.6-1,1.1-1.6,1.7-1.2,1.1-2.3,2.3-3.6,3.3-.9.7-2,1.3-3.1,1.8-4.7,1.8-9.7,1.5-14.5,1.1-5.1-.4-9.9-2.5-13.6-6.3-2.1-2.2-4.1-4.5-6.2-6.6-1.9-1.9-3.9-3.5-5.9-5.3-.2-.2-.6-.3-.7-.5-.1-.5-.3-1.2,0-1.6.2-.3,1.2-.4,1.5-.2,1.8,1.5,4.1,1.6,6.2,2.3.4.1.9.3,1.2.2,3.2-1,6.5-.8,9.8-.3,1.7.3,3.4.2,5.2.4,1.6.1,1.9.6,1.6,2.7.6-.2,1.1-.4,1.6-.5,1.2-.3,2.5-.9,3.7-.8,3.2.3,6.3-.1,9.3-.9,1.9-.5,3.7-1.2,5.6-1.4,1.8-.2,3.5-.3,5.2-.7,1.3-.3,2.9,0,4.2.3,1.1.3,1.9.3,2.9-.1,1.4-.6,2.8-1,4.2-1.5.6,1.1.6,1.9-.2,2.6-4.1,3.4-8.3,6.8-12.4,10.3,0,0-.1,0-.2,0-.3-1-1-1.1-1.8-.9-.2,0-.4.4-.4.6,0,.2.3.5.5.5.5,0,1.1-.1,1.6-.2ZM44.3,43c.5-1.7,0-2.5-2.3-3.2.9,1.2,1.5,2.1,2.3,3.2ZM31,50.8q-.4,1.8,1.3,1.9c.2-1.1.2-1.9-1.3-1.9ZM31.6,47.4c-.8.4.8,1.3-.6,1.3v.9c.4,0,1,0,1.1-.2.5-.8.5-1.6-.5-2ZM50.2,40.4c-.3-1.2-.7-1.9-1.9-2.1.2,1.1.1,2.1,1.9,2.1ZM36.9,43c.8-1.1,1-1.9-.8-2.5.3,1,.5,1.7.8,2.5ZM34.3,54.1h.6c0-.7,0-1.3-.1-2h-.5c0,.3-.2.6-.2.9,0,.4.1.7.2,1.1ZM9.7,39.1c.4-.6.3-1.1-.3-1.4-.1,0-.4.1-.5.3-.3.7.1,1,.8,1.1ZM39.2,51.8h-.6c0,.3,0,.6,0,1,0,0,.3,0,.3,0,0-.3.1-.7.2-1Z"/>
  <path class="cls-13" d="M18.5,21.5c1.4-.9,2.9-1.8,4.3-2.7.2-.1.6-.1.8-.3,1.8-1.7,4.3-1.4,6.5-1.8,1.2-.2,2.2.2,3.2.9,2.2,1.5,2.8,1.4,5-.2.3-.2.8-.5,1.1-.5,1.6,0,3.3-.1,4.9.1,2.2.4,2.6,1,2.8,3.3.7-.3,1.5-1,2.2-.9.6,0,1,1,1.7,1.7,2.2.3,4.4.8,6,2.8.6.7,1.5,1.1,2.3,1.6,2.3,1.6,4.6,3.1,6.9,4.8.9.7,1.7,1.6,2.7,2.6-2.2.9-4,.2-5.8,0-.8,0-1.5-.3-2.3-.3-4.9.1-9.8,0-14.5-1.5-1.1-.3-1.8,0-2.6.5-2.8,1.4-5.6,2.5-8.8,2.3-.8,0-1.6-.1-2.3-.5-4.7-2.8-9.7-2.6-14.8-1.4-4.5,1-9,1.7-13.6,1.3,0-.6,0-1.2,0-1.8,0-.1,0-.3.2-.4,2.3-1.6,4.6-3.2,6.9-4.7,2.1-1.4,4.2-2.8,6.3-4.2.3.4.6.9.9,1.4q.8-1.2,0-2.1ZM36.2,29.7c0,0,0,.1,0,.2,0,0,0,0,.1,0,0,0-.1-.2-.2-.2q-.4-.9-1.1,0c.4,0,.7,0,1.1,0ZM27.9,26.5c-.3.9-.4,1.4-.6,1.9q1.7,1.4,3.7,1c-.9-.9-1.9-1.8-3.1-3ZM18.7,30.7c.5-2.9.5-3-1.4-4.1.4,1.4,0,2.8,1.4,4.1ZM55.8,27.5c-1.3,0-1.5,1.3-2.2,2.1.5.2,1.2.5,1.5.3.6-.6,1.6-1.1.8-2.3ZM45.5,29.2c.2,0,.3,0,.5,0,.1-.3.3-.6.3-1,0-.4,0-.9-.2-1.3,0,0-.5-.2-.5-.1-.3.4-.6.8-.6,1.2,0,.4.3.8.5,1.2ZM28.5,18.3c.4.6.7,1.3,1.1,1.9,0,0,.5-.1.5-.3.2-1-.4-1.5-1.6-1.6ZM14.5,30.3c-.5-.4-.8-.8-1.2-.9-.2,0-.5.4-.7.6.3.3.6.7.9.9.1,0,.5-.3,1-.6ZM7,30.7q.5,1.5,2.1,0h-2.1ZM21.1,26.2c-.5,1.2-.3,1.7.4,2,0,0,.2,0,.5-.2-.2-.5-.4-.9-.9-1.9ZM49.7,29.4c.3-.4.6-.6.6-.9,0-.2-.4-.4-.6-.6-.2.2-.5.5-.5.8,0,.1.3.4.5.7ZM35.3,30.5l-.3.4c.3.3.7.5,1,.8.1-.2.2-.3.4-.5-.3-.3-.7-.5-1-.8ZM46.8,25.4c-.4-.2-.6-.3-.8-.3-.1,0-.3.4-.3.5,0,.2.3.4.5.5.2-.2.3-.4.6-.7Z"/>
  <path class="cls-17" d="M18.5,21.5q.8.8,0,2.1c-.3-.5-.6-.9-.9-1.4.3-.2.6-.5.9-.7Z"/>
  <path class="cls-6" d="M4.3,31.6c0,.6,0,1.2,0,1.8-.6.2-1.1.2-.9-.6.1-.4.5-.8.8-1.2Z"/>
  <path class="cls-24" d="M44.3,43c-.8-1.1-1.4-2-2.3-3.2,2.2.8,2.8,1.5,2.3,3.2Z"/>
  <path class="cls-22" d="M31,50.8c1.5,0,1.5.8,1.3,1.9q-1.7-.1-1.3-1.9Z"/>
  <path class="cls-16" d="M31.6,47.4c.9.5,1,1.2.5,2-.1.2-.7.1-1,.2v-.9c1.3,0-.2-.9.5-1.3Z"/>
  <path class="cls-4" d="M50.2,40.4c-1.7,0-1.7-.9-1.9-2.1,1.2.2,1.6.8,1.9,2.1Z"/>
  <path class="cls-14" d="M36.9,43c-.2-.7-.5-1.5-.8-2.5,1.8.5,1.6,1.4.8,2.5Z"/>
  <path class="cls-15" d="M53.6,47.9c-.5,0-1.1.2-1.6.2-.2,0-.5-.3-.5-.5,0-.2.2-.6.4-.6.8-.2,1.6-.2,1.8.9h0Z"/>
  <path class="cls-8" d="M34.3,54.1c0-.4-.2-.7-.2-1.1,0-.3.1-.6.2-.9h.5c0,.6,0,1.3.1,1.9h-.6Z"/>
  <path class="cls-3" d="M9.7,39.1c-.7-.1-1.1-.4-.8-1.1,0-.1.4-.3.5-.3.6.3.7.8.3,1.4Z"/>
  <path class="cls-12" d="M39.2,51.8c0,.3-.1.7-.2,1,0,0-.3,0-.3,0,0-.3,0-.7,0-1h.6Z"/>
  <path class="cls-23" d="M27.9,26.5c1.2,1.1,2.2,2.1,3.1,3q-2,.4-3.7-1c.2-.5.3-1.1.6-1.9Z"/>
  <path class="cls-20" d="M18.7,30.7c-1.4-1.3-1-2.7-1.4-4.1,1.9,1,2,1.1,1.4,4.1Z"/>
  <path class="cls-7" d="M55.8,27.5c.9,1.2-.2,1.8-.8,2.3-.2.2-.9,0-1.5-.3.7-.8.9-2.1,2.2-2.1Z"/>
  <path class="cls-1" d="M45.5,29.2c-.2-.4-.5-.8-.5-1.2,0-.4.3-.8.6-1.2,0,0,.5,0,.5.1.1.4.2.8.2,1.3,0,.3-.2.6-.3,1-.2,0-.3,0-.5,0Z"/>
  <path class="cls-19" d="M28.5,18.3c1.2.2,1.8.6,1.6,1.6,0,.1-.5.3-.5.3-.4-.6-.7-1.3-1.1-1.9Z"/>
  <path class="cls-18" d="M14.5,30.3c-.5.3-.9.7-1,.6-.4-.2-.6-.6-.9-.9.2-.2.6-.6.7-.6.4.1.7.5,1.2.9Z"/>
  <path class="cls-2" d="M7,30.7h2.1q-1.6,1.5-2.1,0Z"/>
  <path class="cls-11" d="M21.1,26.2c.4.9.6,1.4.9,1.9-.3,0-.4.2-.5.2-.7-.3-.9-.8-.4-2Z"/>
  <path class="cls-5" d="M49.7,29.4c-.3-.4-.5-.6-.5-.7,0-.3.4-.5.5-.8.2.2.6.4.6.6,0,.2-.3.5-.6.9Z"/>
  <path class="cls-21" d="M35.3,30.5c.3.3.7.5,1,.8-.1.2-.2.3-.4.5-.3-.3-.7-.5-1-.8l.3-.4Z"/>
  <path class="cls-10" d="M46.8,25.4c-.3.3-.5.5-.6.7-.2-.2-.4-.3-.5-.5,0-.1.2-.5.3-.5.2,0,.4.2.8.3Z"/>
  <path class="cls-9" d="M36.2,29.7c-.3,0-.7,0-1.1,0q.7-.9,1.1,0s0,0,0,0Z"/>
  <path class="cls-9" d="M36.3,29.7c0,0,.1.2.2.2,0,0-.1,0-.1,0,0,0,0-.1,0-.2h0Z"/>
</svg>