<?xml version="1.0" encoding="UTF-8"?>
<svg id="Layer_1" data-name="Layer 1" xmlns="http://www.w3.org/2000/svg" version="1.1" viewBox="0 0 72 72">
  <path fill="currentColor" d="M60,13.6c-27.7-11.4-19.6-11-47.4.2-4.3,2-.6,9.6-1.1,13.6,1.3,16.3,10.3,31,23.7,40.1.6.5,2.1.4,2.7,0,15.9-10.5,24.5-29,24.3-47.8-.2-2.4.9-5.2-2.2-6.1ZM18.7,38.9c-3.1-7.8,3.2-20,12.9-14,0,0,.1.2.1.3h0c0,.4,1.2,1,1.3,1.3,1.4,1.1,1.7,1.7,3.3,3,19.1-23.9,27.2,28.7.6,10.8-1,.8-2.1,1.7-3.2,2.6,0,.2-.3.4-.2.7-5.8,4.3-12.4,2.3-14.8-4.7Z"/>
  <path fill="currentColor" d="M31.7,30.3h0c-1.1-.3-2.2-.8-3.4-1.2-2.5-.9-4.9.1-5.9,2.5-.6,1.3-1,2.8-1,4.2-.2,2.6,1.5,4.6,4.1,4.5,1.7,0,3.2-1,4.8-1.7.7-.3,1.3-.9,1.9-1.4.7-2.4,2-4.8-.5-6.9Z"/>
  <path fill="currentColor" d="M40.9,39.2c3.1,2.1,6.5,1.3,8.7-1.8,1.5-2.2.3-7.5-1.9-8.3-3.5-1.3-8.9,2.6-9.4,6.7.9,1.2,1.5,2.6,2.6,3.4Z"/>
</svg>