<?xml version="1.0" encoding="UTF-8"?>
<svg id="Layer_1" data-name="Layer 1" xmlns="http://www.w3.org/2000/svg" version="1.1" viewBox="0 0 72 72">
  <defs>
    <style>
      .cls-1 {
        fill: #3f2723;
      }

      .cls-1, .cls-2, .cls-3, .cls-4, .cls-5, .cls-6, .cls-7 {
        stroke-width: 0px;
      }

      .cls-2 {
        fill: #6d5a33;
      }

      .cls-3 {
        fill: #d1b206;
      }

      .cls-4 {
        fill: #876c14;
      }

      .cls-5 {
        fill: #6f5c32;
      }

      .cls-6 {
        fill: #432a24;
      }

      .cls-7 {
        fill: #0e0d0d;
      }
    </style>
  </defs>
  <path class="cls-7" d="M62.2,20.4c-.3,10-2,19.7-6.8,28.7-4.2,7.9-10.4,13.9-17.5,19.1-.6.4-2.1.5-2.7,0-7.6-5.6-14.3-12.2-18.4-20.9-2.9-6.1-4.6-12.5-5.3-19.2-.4-3.6-.6-7.2-.9-10.7-.2-1.6.6-2.4,2-2.9,7.6-3,15.1-6.1,22.7-9.1.8-.3,1.9-.3,2.7,0,7.4,2.9,14.6,6.1,22,8.9,1.7.7,2.3,1.4,2.2,3.1,0,1,0,2,0,3.1ZM12.5,19.7c.2,1.7.3,3.5.5,5.2.8,4.6,1.2,9.4,2.5,13.9,3.3,11.4,10.2,20.2,19.7,27.2.9.7,1.7.9,2.7,0,3.8-3.6,8-6.8,11.2-10.8,8.8-10.7,11-23.7,11.5-37.1,0-.7-.8-1.9-1.5-2.2-7-2.9-14-5.7-21-8.4-1-.4-2.4-.3-3.5,0-6.3,2.4-12.5,5.1-18.8,7.5-2.3.9-3.9,1.8-3.2,4.6Z"/>
  <path class="cls-1" d="M12.5,19.7c-.7-2.8.9-3.7,3.2-4.6,6.3-2.4,12.5-5.1,18.8-7.5,1-.4,2.5-.5,3.5,0,7.1,2.7,14.1,5.5,21,8.4.7.3,1.6,1.5,1.5,2.2-.4,13.4-2.7,26.4-11.5,37.1-3.3,4-7.5,7.2-11.2,10.8-.9.9-1.7.7-2.7,0-9.4-7-16.4-15.9-19.7-27.2-1.3-4.5-1.7-9.2-2.5-13.9-.3-1.7-.4-3.5-.5-5.2ZM31.8,25.8c-6-3.8-10.3-1.2-12.7,3.6-1.6,3.2-1.7,6.7-.5,10.2,2.4,7,9.1,9,14.9,4.6.4,1,1.2,2,1,2.9-.4,2.5-1.3,4.8-1.8,7.3-.6,2.8,1.4,5.4,3.9,5.1,1.7-.2,3.6-.7,4.8-1.7,2.5-2.1,4.8-4.5,7-6.9,3.8-4,5.8-9.3,7.4-14.3,1.5-4.8,1.4-10.1,2.1-15.2.3-2.3-.7-3.4-2.8-4.3-5.8-2.4-11.6-4.9-17.4-7.4-1-.4-1.5-.4-2.2.7-3,4.8-4.4,9.9-3.9,15.5Z"/>
  <path class="cls-2" d="M31.8,25.8c-.6-5.6.8-10.7,3.9-15.5.7-1.1,1.2-1.2,2.2-.7,5.8,2.5,11.6,5,17.4,7.4,2,.8,3.1,2,2.8,4.3-.7,5.1-.6,10.4-2.1,15.2-1.6,5.1-3.6,10.3-7.4,14.3-2.3,2.4-4.5,4.8-7,6.9-1.3,1-3.1,1.5-4.8,1.7-2.5.3-4.5-2.3-3.9-5.1.5-2.5,1.4-4.8,1.8-7.3.1-.9-.7-1.9-1-2.9,0-.2,0-.3,0-.5,1.1-.9,2.2-1.8,3.2-2.6,2,1,3.9,2.3,6,3.1,6.1,2.1,11.4-1.7,11.2-8.1,0-2.3-.7-4.8-1.6-6.9-2.6-6-8.3-7-13-2.4-1.2,1.2-2.3,2.5-3.2,3.5-1.6-1.3-3-2.5-4.4-3.6,0-.2,0-.5,0-.7Z"/>
  <path class="cls-4" d="M33.6,43.6c0,.2,0,.3,0,.5-5.8,4.4-12.4,2.4-14.9-4.6-1.2-3.5-1.2-6.9.5-10.2,2.4-4.7,6.7-7.3,12.7-3.6,0,.2,0,.5,0,.7,0,1.5,0,3,0,4.5-1.1-.4-2.3-.9-3.4-1.3-2.5-.8-4.9.1-5.9,2.5-.6,1.3-.9,2.8-1,4.2-.2,2.6,1.5,4.6,4.1,4.5,1.6,0,3.2-1,4.8-1.7.7-.3,1.3-.9,1.9-1.4.5,1.9.9,3.8,1.4,5.7Z"/>
  <path class="cls-3" d="M31.7,31c0-1.5,0-3,0-4.5,1.4,1.2,2.8,2.3,4.4,3.6.9-1,2-2.3,3.2-3.5,4.7-4.6,10.4-3.6,13,2.4.9,2.1,1.5,4.6,1.6,6.9.2,6.4-5.1,10.2-11.2,8.1-2.1-.7-4-2-6-3.1-1,.8-2.1,1.7-3.2,2.6-.5-1.9-.9-3.8-1.4-5.7.8-2.4,2.1-4.7-.5-6.9ZM38.3,36.5c.9,1.1,1.5,2.6,2.6,3.4,3.1,2.1,6.6,1.3,8.7-1.8,1.5-2.2.3-7.5-1.9-8.3-3.5-1.3-9,2.6-9.4,6.7Z"/>
  <path class="cls-6" d="M31.7,31c2.5,2.1,1.2,4.5.5,6.9-.6.5-1.2,1.1-1.9,1.4-1.6.7-3.1,1.6-4.8,1.7-2.6.1-4.3-1.9-4.1-4.5,0-1.4.4-2.9,1-4.2,1-2.4,3.4-3.4,5.9-2.5,1.2.4,2.3.9,3.4,1.3Z"/>
  <path class="cls-5" d="M38.3,36.5c.5-4.1,5.9-8,9.4-6.7,2.2.8,3.4,6.1,1.9,8.3-2.2,3.1-5.6,3.9-8.7,1.8-1.1-.8-1.7-2.2-2.6-3.4Z"/>
</svg>