<?xml version="1.0" encoding="UTF-8"?>
<svg id="Layer_1" data-name="Layer 1" xmlns="http://www.w3.org/2000/svg" version="1.1" viewBox="0 0 72 72">
  <path fill="currentColor" d="M65.7,35.6c-1-.4-2.1-.7-3.2-1-3-.7-6-1.4-9-2.1.5-1.4-1.2-4.2-2.7-4.4-3.6-.4-5.5-2.2-6.3-5.8-.3-1.4-1.6-2.6-2.7-3.7s-1.4.3-1.8.4c-.9-3.7-1.8-7.4-2.8-11-.1-.7-1-1.3-1.5-1.9-.5.6-1.3,1.2-1.5,1.9-1,3.6-1.9,7.3-2.8,11-.5-.2-1.2-.5-2.1-.8-1,2-1.8,4.1-3,5.9-.9,1.3-2,2.6-3.3,3.3-1.4.7-3,.7-4.3,2.1-1,1-1.5,1.6-.6,3-1,.2-1.9.2-2.8.5-3.6,1-7.1,2.2-10.7,3.3h-.2v.4c.9.5,1.7,1.1,2.6,1.4,3.6,1,7.3,1.9,10.9,2.8-.6,1.7,1.1,4.3,3.3,4.6,3.1.3,4.8,1.9,5.4,5.1.4,2.5,2.9,4.3,4.6,3.8,1,4,2.1,8,3.2,11.9.2.4.8.8,1.2,1.2.4-.4,1-.9,1.2-1.4,1.2-3.9,2.2-7.9,3.2-11.7.5,0,1.7.3,1.9,0,1-1.3,2.6-2.1,2.8-4.1.3-2.6,2.4-4.8,5.1-4.8s1.8-1.6,2.8-1.9c2.2-.7.9-2,.7-3.1,1.4,0,2.9-.2,4.2-.5,2.8-.7,5.5-1.5,8.2-2.4.4,0,.9-.7.9-1.1s-.5-.7-.9-.9ZM38.6,41.8c-.5-1.2-.9-2.3-1.4-3.6,1.5.4,2.8.8,4.3,1.2-.9.8-1.8,1.5-2.9,2.4ZM38.6,30.9c.9,1,1.8,1.9,2.7,2.9-1.1.3-2.3.6-3.7,1,.3-1.4.6-2.6.9-3.8h0ZM35.7,8.7c3.2,6.2,3.3,19.1,0,25.8-3-8.7-3.1-17.2,0-25.8ZM30.4,33.9c1-1.1,1.8-2,2.7-2.9.3,1.3.6,2.6,1,4-1.4-.4-2.6-.8-3.8-1.1h.1ZM7.5,36.6c9-3.1,17.4-3.1,26.4,0-9,3.2-17.4,3.1-26.4,0ZM30.2,39.4c1.2-.3,2.3-.5,3.5-.8-.2,1.2-.3,2.3-.5,3.5-1.1-1-2-1.8-3-2.7ZM35.7,64.9c-3.2-9-3-17.5,0-26.5,3.1,9.1,3.1,17.5,0,26.5ZM46.6,39.3c-.1,0-.2,0-.3,0h-.2c-.8-.3-1.6-.4-2.4-.6,0,0,0,0,0,0-1.8-.7-3.5-1.3-5.4-2,6.3-3.1,18.1-3.2,25.6,0-5.7,2.5-11.5,2.4-17.3,2.6Z"/>
</svg>