<?xml version="1.0" encoding="UTF-8"?>
<svg id="Layer_1" data-name="Layer 1" xmlns="http://www.w3.org/2000/svg" version="1.1" viewBox="0 0 72 72">
  <defs>
    <style>
      .cls-1 {
        fill: #0d3557;
      }

      .cls-1, .cls-2, .cls-3, .cls-4, .cls-5 {
        stroke-width: 0px;
      }

      .cls-2 {
        fill: #1f81d6;
      }

      .cls-3 {
        fill: #0d3456;
      }

      .cls-4 {
        fill: #080b0e;
      }

      .cls-5 {
        fill: #1f82d6;
      }
    </style>
  </defs>
  <path class="cls-4" d="M4.6,36.3c3.6-1.1,7.1-2.3,10.7-3.3.9-.3,1.8-.3,2.8-.5-.9-1.4-.4-2,.6-3,1.3-1.4,2.9-1.4,4.3-2.1,1.3-.7,2.4-2,3.3-3.3,1.2-1.8,2-3.9,3-5.9.9.3,1.6.6,2.1.8.9-3.7,1.8-7.4,2.8-11,.2-.7,1-1.3,1.5-1.9.5.6,1.4,1.2,1.5,1.9,1,3.6,1.9,7.3,2.8,11,.4-.1,1.5-.7,1.8-.4,1.1,1.1,2.4,2.3,2.7,3.7.8,3.6,2.7,5.4,6.3,5.8,1.5.2,3.2,3,2.7,4.4,3,.7,6,1.4,9,2.1,1.1.3,2.2.6,3.2,1,.4.2.9.7.9.9,0,.4-.5,1-.9,1.1-2.7.9-5.4,1.7-8.2,2.4-1.3.3-2.8.4-4.2.5.2,1.1,1.5,2.4-.7,3.1-1,.3-1.1,1.9-2.8,1.9-2.7,0-4.8,2.2-5.1,4.8-.2,2-1.8,2.8-2.8,4.1-.2.3-1.4,0-1.9,0-1,3.8-2,7.8-3.2,11.7-.2.5-.8,1-1.2,1.4-.4-.4-1-.8-1.2-1.2-1.1-3.9-2.2-7.9-3.2-11.9-1.7.5-4.2-1.3-4.6-3.8-.6-3.2-2.3-4.8-5.4-5.1-2.2-.3-3.9-2.9-3.3-4.6-3.6-.9-7.3-1.8-10.9-2.8-.9-.3-1.7-.9-2.6-1.4,0-.1,0-.3,0-.4ZM43.7,38.7c0,.6-.2,1.3-.2,2.1-3.3-.4-2.9,3.3-5,4.3,0,0,0,.5,0,.8.1,1.7.3,3.3.4,5,.1,1.5,1.3,2.2,2.5,1.4.7-.5,1.4-1.4,1.8-2.2.8-2.1,1.7-4,3.7-5,.9-.5,2.1-.6,2.9-1.3.8-.6,1.8-1.6,1.9-2.5.1-1.3-1.2-1.1-2.2-1.3-1.1-.1-2.2-.5-3.2-.7,5.9-.2,11.8-.1,17.6-2.6-7.5-3.2-19.3-3.1-25.6,0,2,.7,3.8,1.4,5.7,2.1ZM33.1,28.1c-.2-1.7-.4-3.8-.7-6-.1-1.4-1.2-1.8-2.1-1.2-.8.5-1.4,1.5-1.9,2.4-.7,1.1-1,2.6-1.9,3.4-1.4,1.2-3.2,1.9-4.7,2.9-.8.6-2,1.4-2,2.2-.1,1.4,1.3,1.7,2.4,1.8,1.5.2,3.1.3,4.6.4.4,0,.8-.4,1.2-.7.4-.3.9-.7,1.3-1,.7-.7,1.5-1.4,2.2-2.2.5-.5.9-1,1.7-1.8ZM19.3,41.5c.9.8,1.6,1.8,2.4,2.1,3.6,1.1,6.1,3.1,6.9,7,.1.8,1.7,1.3,2.6,1.8.2,0,1.1-.6,1.1-1,.3-2.2.5-4.5.7-6.4-2-2-3.8-3.8-5.8-5.8-2.3,1.1-5.7-.6-8,2.3ZM41.1,19.8c-1.1.9-2.2,1.6-2.1,1.9.7,2.5-2.2,5.4,1,7.5.1,0,0,.4.1.6.7.8,1.4,1.5,2.2,2.2.5.5.9.9,1.4,1.3.3.2.6.5,1,.5,1.8-.1,3.6-.2,5.4-.6,1.8-.3,2.1-1.5.9-2.8-.5-.5-1.2-1-1.9-1.2-2.7-.8-4.5-2.5-5.7-5-.6-1.4-1.4-2.7-2.3-4.5ZM7.5,36.6c9,3.1,17.4,3.2,26.4,0-9-3.1-17.4-3.1-26.4,0ZM35.7,34.5c3.3-6.7,3.2-19.6,0-25.8-3.1,8.6-3,17.1,0,25.8ZM35.7,38.4c-3,9-3.2,17.5,0,26.5,3.1-9,3.1-17.4,0-26.5ZM30.3,33.9c1.2.3,2.4.7,3.8,1.1-.4-1.4-.7-2.7-1-4-.9.9-1.7,1.8-2.7,2.9ZM38.5,31c-.3,1.2-.6,2.4-.9,3.8,1.4-.4,2.6-.7,3.7-1-.9-1-1.8-1.9-2.7-2.9ZM33.2,42.1c.2-1.2.3-2.3.5-3.5-1.2.3-2.3.5-3.5.8,1,.9,1.9,1.7,3,2.7ZM37.2,38.2c.5,1.3.9,2.4,1.4,3.6,1.1-.9,2-1.6,2.9-2.4-1.5-.4-2.8-.8-4.3-1.2Z"/>
  <path class="cls-3" d="M46.1,39.2c1.1.3,2.1.6,3.2.7,1,.1,2.4,0,2.2,1.3,0,.9-1,1.9-1.9,2.5-.8.6-2,.8-2.9,1.3-2,1.1-3,3-3.7,5-.3.9-1,1.7-1.8,2.2-1.2.8-2.3.1-2.5-1.4-.1-1.7-.3-3.3-.4-5,0-.3,0-.7,0-.8,2.1-.9,1.7-4.7,5-4.3,0-.8.2-1.4.2-2.1.8.2,1.6.3,2.4.5Z"/>
  <path class="cls-1" d="M33.1,28.1c-.8.8-1.2,1.3-1.7,1.8-.7.7-1.4,1.5-2.2,2.2-.4.4-.8.7-1.3,1-.4.3-.8.7-1.2.7-1.5,0-3.1-.2-4.6-.4-1.2-.1-2.6-.5-2.4-1.8,0-.8,1.2-1.6,2-2.2,1.5-1,3.3-1.7,4.7-2.9.9-.8,1.2-2.3,1.9-3.4.5-.9,1.1-1.9,1.9-2.4.9-.5,2-.2,2.1,1.2.2,2.2.5,4.4.7,6Z"/>
  <path class="cls-2" d="M46.1,39.2c-.8-.2-1.6-.3-2.4-.5-1.9-.7-3.7-1.3-5.7-2.1,6.3-3.2,18.1-3.2,25.6,0-5.8,2.5-11.7,2.4-17.6,2.6Z"/>
  <path class="cls-3" d="M19.3,41.5c2.3-2.9,5.7-1.2,8-2.3,2,2,3.8,3.8,5.8,5.8-.2,1.9-.4,4.2-.7,6.4,0,.4-.9,1.1-1.1,1-1-.5-2.5-1-2.6-1.8-.8-4-3.3-5.9-6.9-7-.8-.3-1.5-1.2-2.4-2.1Z"/>
  <path class="cls-1" d="M41.1,19.8c.9,1.8,1.6,3.1,2.3,4.5,1.1,2.5,3,4.2,5.7,5,.7.2,1.4.7,1.9,1.2,1.2,1.3.9,2.5-.9,2.8-1.8.3-3.6.4-5.4.6-.3,0-.7-.3-1-.5-.5-.4-1-.9-1.4-1.3-.7-.7-1.5-1.5-2.2-2.2-.1-.1,0-.5-.1-.6-3.2-2.1-.2-5.1-1-7.5,0-.3,1-1,2.1-1.9Z"/>
  <path class="cls-5" d="M7.5,36.6c9-3.2,17.4-3.1,26.4,0-8.9,3.2-17.4,3.2-26.4,0Z"/>
  <path class="cls-2" d="M35.7,34.5c-3-8.7-3.1-17.1,0-25.8,3.3,6.1,3.3,19.1,0,25.8Z"/>
  <path class="cls-5" d="M35.7,38.4c3.2,9,3.1,17.5,0,26.5-3.3-8.9-3.1-17.4,0-26.5Z"/>
</svg>