<?xml version="1.0" encoding="UTF-8"?>
<svg id="Layer_1" data-name="Layer 1" xmlns="http://www.w3.org/2000/svg" version="1.1" viewBox="0 0 72 72">
  <path fill="currentColor" d="M15.9,24.2c-.7,0-1.3-.1-2.3-.3.2-1.3.3-2.5.6-3.6,1.1-3.8,2.3-7.6,3.5-11.3.7-2.2.9-2.2,2.9-.9,3.5,2.2,7,4.2,10.6,6.3,1,.6,1.9,1.3,3.2,2.2-1.9,1-3.4,1.7-4.9,2.5,2.1,4.8,4.3,9.6,6.5,14.7,2.3-5.2,4.4-10,6.5-14.8-1.1-.5-2.1-.8-2.9-1.2-.5-.3-1.1-.8-1.1-1.2s.5-1,.9-1.3c4.1-2.6,8.2-5.1,12.3-7.7,1.1-.7,1.8-.4,2.3,1,.7,2.1,1.4,4.1,2,6.2.7,2.4,1.3,4.9,2.1,7.3.5,1.4.7,2.5-1.7,2.8,3.2,1.2,5.9,2.2,8.5,3.3,2.4,1,2.7,1.6,1.1,3.7-2.5,3.3-5.1,6.6-7.6,9.9-.5.7-.9,1.4-1.3,2.1-.3,0-.6-.2-.8-.4-.6-.9-1.1-1.8-1.7-2.6-.5-.6-.6-2.3-2.3-1.1,1.2,1.9,2.4,3.8,3.7,6,.8-.4,1.5-.9,2.3-1.3,1.2-.7,2-.4,1.9.9-.2,3.8-.5,7.6-.7,11.5v3.3c0,.7,0,1.5-.2,2.7-5.9-2.5-11.7-4.2-17.2-6.7v-.7c1.2-.9,2.3-1.8,3.5-2.7-3.1-4.6-6.3-9.2-9.5-14-3.2,4.6-6.3,9.2-9.5,13.9.8.6,1.6,1.2,2.4,1.8,1.2,1,1.1,1.9-.4,2.4-3.4,1.3-6.9,2.5-10.4,3.8-1.2.4-2.3,1-3.4,1.4-1.3.5-2.1,0-2.1-1.3-.2-5.1-.3-10.2-.4-15.3,0-.4.2-.9.4-1.6,1.2.7,2.3,1.2,3.5,1.9,1.2-1.9,2.4-3.9,3.6-6-1-1-1.5-.4-1.9.4-.6,1.1-1.3,2.2-2.3,3.7-3.9-5-7.5-9.6-11.4-14.5,4.3-1.7,8.3-3.3,12.2-4.9v-.5c-.1,0-.3.1-.4.2h0ZM41.4,32.1c.8,0,1.2-.2,1.6-.2,1.7.1,2.5-.7,3.1-2.3,1-3.1,2.3-6.1,3.4-9.1.3-.7.6-1.3.9-1.9.9.2,1.6.3,2.6.4-.7-2.3-1.3-4.2-1.9-6.4-2,1.2-3.8,2.2-5.6,3.3.7.6,1.2,1,1.7,1.4-1.9,4.8-3.8,9.5-5.8,14.6v.2ZM31.5,38.2c1.9-2,1.7-2.8-.8-3.6-3.5-1.1-7-2.2-10.5-3.2-1.6-.5-3.5-.6-3.3-3.2-2,1-3.8,1.8-5.8,2.7,1.5,1.7,2.8,3.1,4.2,4.6.5-.6.9-1.2,1.3-1.8,5,1.5,9.9,3,14.8,4.5h0ZM22.4,18.8c1.3,3.4,2.6,6.8,3.9,10.1,1.3,3.2.4,2.9,4.8,3-1.9-4.9-3.7-9.6-5.6-14.4.6-.5,1.1-.9,1.7-1.4-1.9-1.1-3.7-2.1-5.6-3.3-.7,2.2-1.2,4.2-1.9,6.3,1-.1,1.8-.2,2.7-.4h0ZM41.1,38.2c4.3-1.3,8.7-2.6,13-4,1.5-.5,2.5-.4,3.2,1.4,1.5-1.6,2.8-3.1,4.2-4.7-2-.9-3.8-1.7-5.7-2.6,0,2.2-1.5,2.7-3.1,3.1-3.7,1-7.3,2.2-10.9,3.3-2.3.7-2.4,1.6-.7,3.5ZM55.9,51.5c-.2,0-.3,0-.5.2-.6-.6-1.4-1.1-1.9-1.8-2.4-3.3-4.7-6.6-7.1-10-1.1.4-2.2.8-3.4,1.2,2.8,4.3,5.4,8.3,8,12.2-.5.6-.8,1.1-1.3,1.7,2,.6,3.7,1.2,5.7,1.9.2-2,.4-3.7.5-5.4ZM23,55c-.5-.7-.9-1.2-1.3-1.7,2.6-4,5.2-8,7.9-12.2-1.3-.4-2.3-.8-3.4-1.2-2.4,3.4-4.7,6.7-7.1,10-.5.7-1.4,1.2-2.4,2,.2,1.3.4,3,.6,4.9,2-.7,3.7-1.2,5.6-1.8h0ZM21.9,29.3c.1,0,.3-.2.4-.3-.5-.9-1.1-1.8-1.6-2.7-.1,0-.3.1-.4.2,0,.8-.1,1.6-.2,2.5.7.1,1.3.2,1.9.4h0ZM51.9,29.1c0-.7,0-1.1-.2-1.5,0-.4-.2-.8-.3-1.7-.7,1.3-1.2,2.2-1.8,3.3.9,0,1.5-.1,2.3-.2h0Z"/>
</svg>