<?xml version="1.0" encoding="UTF-8"?>
<svg id="Layer_1" data-name="Layer 1" xmlns="http://www.w3.org/2000/svg" version="1.1" viewBox="0 0 72 72">
  <defs>
    <style>
      .cls-1 {
        fill: #6bbbc8;
      }

      .cls-1, .cls-2, .cls-3, .cls-4, .cls-5, .cls-6, .cls-7 {
        stroke-width: 0px;
      }

      .cls-2 {
        fill: #6bbcc9;
      }

      .cls-3 {
        fill: #6da04d;
      }

      .cls-4 {
        fill: #070807;
      }

      .cls-5 {
        fill: #6abac8;
      }

      .cls-6 {
        fill: #6c9f4d;
      }

      .cls-7 {
        fill: #6da04e;
      }
    </style>
  </defs>
  <path class="cls-4" d="M15.9,24.2c-.7,0-1.3-.1-2.3-.3.2-1.3.3-2.5.6-3.6,1.1-3.8,2.3-7.6,3.5-11.3.7-2.2.9-2.2,2.9-.9,3.5,2.2,7,4.2,10.6,6.3,1,.6,1.9,1.3,3.2,2.2-1.9,1-3.4,1.7-4.9,2.5,2.1,4.8,4.3,9.6,6.5,14.7,2.3-5.2,4.4-10,6.5-14.8-1.1-.5-2.1-.8-2.9-1.2-.5-.3-1.1-.8-1.1-1.2,0-.4.5-1,.9-1.3,4.1-2.6,8.2-5.1,12.3-7.7,1.1-.7,1.8-.4,2.3,1,.7,2.1,1.4,4.1,2,6.2.7,2.4,1.3,4.9,2.1,7.3.5,1.4.7,2.5-1.7,2.8,3.2,1.2,5.9,2.2,8.5,3.3,2.4,1,2.7,1.6,1.1,3.7-2.5,3.3-5.1,6.6-7.6,9.9-.5.7-.9,1.4-1.3,2.1-.3-.1-.6-.2-.8-.4-.6-.9-1.1-1.8-1.7-2.6-.5-.6-.6-2.3-2.3-1.1,1.2,1.9,2.4,3.8,3.7,6,.8-.4,1.5-.9,2.3-1.3,1.2-.7,2-.4,1.9.9-.2,3.8-.5,7.6-.7,11.5,0,1.1,0,2.2,0,3.3,0,.7-.1,1.5-.2,2.7-5.9-2.5-11.7-4.2-17.2-6.7,0-.2,0-.5,0-.7,1.2-.9,2.3-1.8,3.5-2.7-3.1-4.6-6.3-9.2-9.5-14-3.2,4.6-6.3,9.2-9.5,13.9.8.6,1.6,1.2,2.4,1.8,1.2,1,1.1,1.9-.4,2.4-3.4,1.3-6.9,2.5-10.4,3.8-1.2.4-2.3,1-3.4,1.4-1.3.5-2.1,0-2.1-1.3-.2-5.1-.3-10.2-.4-15.3,0-.4.2-.9.4-1.6,1.2.7,2.3,1.2,3.5,1.9,1.2-1.9,2.4-3.9,3.6-6-1-1-1.5-.4-1.9.4-.6,1.1-1.3,2.2-2.3,3.7-3.9-5-7.5-9.6-11.4-14.5,4.3-1.7,8.3-3.3,12.2-4.9,0-.2,0-.3,0-.5-.1,0-.3.1-.4.2ZM41.4,32.1c.8,0,1.2-.2,1.6-.2,1.7.1,2.5-.7,3.1-2.3,1-3.1,2.3-6.1,3.4-9.1.3-.7.6-1.3.9-1.9.9.2,1.6.3,2.6.4-.7-2.3-1.3-4.2-1.9-6.4-2,1.2-3.8,2.2-5.6,3.3.7.6,1.2,1,1.7,1.4-1.9,4.8-3.8,9.5-5.8,14.6ZM31.5,38.2c1.9-2,1.7-2.8-.8-3.6-3.5-1.1-7-2.2-10.5-3.2-1.6-.5-3.5-.6-3.3-3.2-2,1-3.8,1.8-5.8,2.7,1.5,1.7,2.8,3.1,4.2,4.6.5-.6.9-1.2,1.3-1.8,5,1.5,9.9,3,14.8,4.5ZM22.4,18.8c1.3,3.4,2.6,6.8,3.9,10.1,1.3,3.2.4,2.9,4.8,3-1.9-4.9-3.7-9.6-5.6-14.4.6-.5,1.1-.9,1.7-1.4-1.9-1.1-3.7-2.1-5.6-3.3-.7,2.2-1.2,4.2-1.9,6.3,1-.1,1.8-.2,2.7-.4ZM41.1,38.2c4.3-1.3,8.7-2.6,13-4,1.5-.5,2.5-.4,3.2,1.4,1.5-1.6,2.8-3.1,4.2-4.7-2-.9-3.8-1.7-5.7-2.6,0,2.2-1.5,2.7-3.1,3.1-3.7,1-7.3,2.2-10.9,3.3-2.3.7-2.4,1.6-.7,3.5ZM55.9,51.5c-.2,0-.3.1-.5.2-.6-.6-1.4-1.1-1.9-1.8-2.4-3.3-4.7-6.6-7.1-10-1.1.4-2.2.8-3.4,1.2,2.8,4.3,5.4,8.3,8,12.2-.5.6-.8,1.1-1.3,1.7,2,.6,3.7,1.2,5.7,1.9.2-2,.4-3.7.5-5.4ZM23,55c-.5-.7-.9-1.2-1.3-1.7,2.6-4,5.2-8,7.9-12.2-1.3-.4-2.3-.8-3.4-1.2-2.4,3.4-4.7,6.7-7.1,10-.5.7-1.4,1.2-2.4,2,.2,1.3.4,3,.6,4.9,2-.7,3.7-1.2,5.6-1.8ZM21.9,29.3c.1,0,.3-.2.4-.3-.5-.9-1.1-1.8-1.6-2.7-.1,0-.3.1-.4.2,0,.8-.1,1.6-.2,2.5.7.1,1.3.2,1.9.4ZM51.9,29.1c0-.7-.1-1.1-.2-1.5,0-.4-.2-.8-.3-1.7-.7,1.3-1.2,2.2-1.8,3.3.9,0,1.5-.1,2.3-.2Z"/>
  <path class="cls-5" d="M41.4,32.1c2-5.1,3.9-9.8,5.8-14.6-.5-.4-1-.8-1.7-1.4,1.9-1.1,3.7-2.2,5.6-3.3.6,2.2,1.2,4.1,1.9,6.4-.9-.2-1.6-.3-2.6-.4-.3.6-.6,1.2-.9,1.9-1.2,3-2.4,6-3.4,9.1-.5,1.6-1.4,2.4-3.1,2.3-.4,0-.8,0-1.6.2Z"/>
  <path class="cls-1" d="M31.5,38.2c-4.9-1.5-9.8-3-14.8-4.5-.5.6-.9,1.2-1.3,1.8-1.4-1.5-2.7-2.9-4.2-4.6,2-.9,3.7-1.8,5.8-2.7-.1,2.6,1.7,2.7,3.3,3.2,3.5,1,7,2.1,10.5,3.2,2.5.8,2.7,1.6.8,3.6Z"/>
  <path class="cls-6" d="M22.4,18.8c-.9.1-1.7.2-2.7.4.6-2.1,1.2-4.1,1.9-6.3,1.9,1.1,3.7,2.1,5.6,3.3-.6.5-1.1.9-1.7,1.4,1.9,4.8,3.7,9.5,5.6,14.4-4.4-.1-3.5.2-4.8-3-1.3-3.3-2.6-6.7-3.9-10.1Z"/>
  <path class="cls-3" d="M41.1,38.2c-1.8-2-1.6-2.8.7-3.5,3.6-1.1,7.2-2.3,10.9-3.3,1.6-.4,3-.9,3.1-3.1,1.9.9,3.6,1.7,5.7,2.6-1.5,1.6-2.7,3.1-4.2,4.7-.7-1.8-1.7-1.9-3.2-1.4-4.3,1.4-8.7,2.7-13,4Z"/>
  <path class="cls-2" d="M55.9,51.5c-.2,1.7-.3,3.4-.5,5.4-2-.7-3.7-1.2-5.7-1.9.5-.6.9-1.1,1.3-1.7-2.6-4-5.2-8-8-12.2,1.3-.4,2.3-.8,3.4-1.2,2.4,3.4,4.7,6.8,7.1,10,.5.7,1.3,1.2,1.9,1.8.2,0,.3-.1.5-.2Z"/>
  <path class="cls-7" d="M23,55c-1.9.6-3.6,1.2-5.6,1.8-.3-1.9-.5-3.6-.6-4.9,1-.9,1.9-1.3,2.4-2,2.4-3.3,4.7-6.6,7.1-10,1.1.4,2.1.7,3.4,1.2-2.7,4.2-5.3,8.1-7.9,12.2.4.6.8,1.1,1.3,1.7Z"/>
</svg>